<?xml version="1.0" encoding="UTF-8"?>
<svg version="1.1" xmlns="http://www.w3.org/2000/svg" width="900" height="940">
<path d="M385 45 C383.37795654 45.27287842 383.37795654 45.27287842 381.72314453 45.55126953 C342.16627848 52.26507707 303.48563396 65.47958767 267.92138672 84.00244141 C265.9240856 85.03941375 263.91758716 86.05701313 261.91015625 87.07421875 C237.56255661 99.53824173 214.85197328 115.34328563 194 133 C192.98687744 133.84393311 191.97375488 134.68786621 190.92993164 135.55737305 C182.57919549 142.5617063 174.72730219 149.95932366 167.0480957 157.69116211 C165.17816859 159.57188528 163.29767362 161.44156819 161.41601562 163.31054688 C154.4829868 170.23554978 148.06132792 177.29131003 142 185 C140.89260639 186.34103943 139.78100189 187.67861944 138.6640625 189.01171875 C131.21238931 197.99280082 124.38466486 207.23298293 118 217 C117.51144531 217.74652832 117.02289063 218.49305664 116.51953125 219.26220703 C89.59591096 260.6425656 70.12870055 305.74544599 59.1875 353.9375 C58.90962646 355.1555835 58.63175293 356.37366699 58.34545898 357.62866211 C54.75379724 373.95886741 52.52425831 390.33135546 51.3125 407 C51.21869049 408.26657944 51.21869049 408.26657944 51.12298584 409.55874634 C46.22824498 476.59907446 57.44320685 544.38843228 85.83837891 605.49902344 C86.9777383 607.95207043 88.09017123 610.41594054 89.19921875 612.8828125 C101.3369318 639.56174614 117.4367643 665.2928841 136 688 C136.74121094 688.93070313 137.48242188 689.86140625 138.24609375 690.8203125 C142.78378814 696.46687156 147.53021077 701.8786625 152.4453125 707.19921875 C154.43717823 709.38296146 156.37836297 711.59089275 158.30859375 713.828125 C162.01798798 718.07980783 165.93734711 722.08549167 169.9375 726.0625 C170.60201172 726.73087891 171.26652344 727.39925781 171.95117188 728.08789062 C176.4695674 732.59752108 181.16251017 736.83721764 186 741 C187.05986234 741.93736967 188.11853247 742.87608976 189.17578125 743.81640625 C204.06918544 756.92260194 220.31854614 768.29576944 237 779 C237.59603027 779.38430176 238.19206055 779.76860352 238.80615234 780.16455078 C280.20534928 806.60646557 327.00437742 823.93832202 375.02685547 833.41113281 C377.48248965 833.89750082 379.9308943 834.40683398 382.37890625 834.9296875 C423.99552256 843.21032705 468.20993681 842.10232996 510 836 C511.61406738 835.77570313 511.61406738 835.77570313 513.26074219 835.546875 C548.93828076 830.49849745 584.30983119 818.9934913 617 804 C617.7748877 803.65291992 618.54977539 803.30583984 619.34814453 802.94824219 C663.05566167 783.36683734 701.35707758 754.53641242 735.21530151 720.95892334 C736.2205005 719.96241933 737.22706344 718.96728886 738.23513794 717.97369385 C744.96346954 711.33065234 751.09811911 704.38738327 757 697 C757.94649207 695.88643568 758.89955869 694.77837379 759.86328125 693.6796875 C766.68762545 685.86488824 772.7231038 677.63742837 778.57861328 669.07714844 C779.89618428 667.15171146 781.22639571 665.23563979 782.55859375 663.3203125 C789.1472327 653.74707641 794.9336307 643.74231408 800.56689453 633.58300781 C801.47070134 631.95399998 802.37981756 630.32791604 803.29638672 628.70605469 C823.17689584 593.45580646 836.17114829 553.92069742 843.56494141 514.26733398 C843.85345687 512.7637183 844.15768682 511.26302753 844.47802734 509.76586914 C852.90005972 470.16746911 853.40972379 425.87516939 847 386 C846.78834733 384.6439156 846.57693398 383.28779383 846.36572266 381.93164062 C834.11884799 304.14569441 800.9579939 231.60549388 748 173 C747.50048828 172.4440918 747.00097656 171.88818359 746.48632812 171.31542969 C736.57963674 160.32016168 726.3443267 149.52672739 715 140 C714.08347656 139.2059375 713.16695312 138.411875 712.22265625 137.59375 C690.5922559 118.91185881 667.02597587 102.79192477 642 89 C641.27135742 88.59120605 640.54271484 88.18241211 639.79199219 87.76123047 C596.15455039 63.35401147 548.71286206 50.35371916 499.55078125 43.1640625 C498.49927635 43.00834778 498.49927635 43.00834778 497.42652893 42.8494873 C487.12638101 41.37796181 476.92472044 40.82765093 466.5234375 40.76171875 C464.61538078 40.74709595 464.61538078 40.74709595 462.66877747 40.73217773 C458.57086135 40.70490008 454.47299668 40.69375077 450.375 40.6875 C449.67846439 40.68620213 448.98192879 40.68490425 448.26428604 40.68356705 C426.91321561 40.65338524 406.08020597 41.19987992 385 45 Z " fill="#EDB010" transform="translate(45,47) scale(0.9)"/>
<path d="M0 0 C3.97463271 0.01610151 7.94824902 0.00003278 11.92285156 -0.01904297 C34.3840839 -0.0386628 56.27839341 2.21570782 78.35253906 6.26611328 C79.07200714 6.39661072 79.79147522 6.52710815 80.53274536 6.66156006 C112.65692657 12.5084105 143.35088209 22.6390828 172.97753906 36.39111328 C174.49128704 37.07467958 176.00558872 37.75702136 177.52050781 38.43798828 C204.8770741 50.86268611 230.78611951 67.31364989 253.97753906 86.39111328 C255.60248975 87.66200967 257.22749115 88.93284122 258.85253906 90.20361328 C263.84147475 94.18848644 268.51073532 98.47310085 273.18457031 102.81689453 C275.35090844 104.81356142 277.53964752 106.74219287 279.79003906 108.64111328 C289.17869788 116.78715549 297.98308688 125.8822935 305.97753906 135.39111328 C306.83089844 136.35533203 307.68425781 137.31955078 308.56347656 138.31298828 C321.76284755 153.28054763 333.20993558 169.61089917 343.97753906 186.39111328 C344.36184082 186.98714355 344.74614258 187.58317383 345.14208984 188.19726562 C375.20130329 235.25994271 393.3441317 288.49994084 401.68328857 343.46429443 C401.95487156 345.24268132 402.23743623 347.01938189 402.52099609 348.79589844 C409.26388454 392.36687672 406.79178816 439.87385743 396.59228516 482.73486328 C395.98898814 485.34164306 395.45252065 487.95367073 394.93457031 490.57861328 C389.63218539 516.79146672 379.944128 542.07847198 368.97753906 566.39111328 C368.59919922 567.2427002 368.22085938 568.09428711 367.83105469 568.97167969 C358.80831459 589.19995023 347.62333776 608.229499 334.97753906 626.39111328 C334.55408203 627.00744629 334.130625 627.6237793 333.69433594 628.25878906 C326.96379181 638.04794418 319.61388618 647.2954128 311.97753906 656.39111328 C311.36526962 657.12725357 311.36526962 657.12725357 310.7406311 657.87826538 C303.44966974 666.62804273 295.79496425 674.89164331 287.71362305 682.91577148 C285.90532299 684.71327133 284.10807929 686.52133644 282.31152344 688.33056641 C275.50597192 695.14425415 268.54667872 701.42576671 260.97753906 707.39111328 C259.6832573 708.46322479 258.39249408 709.53960841 257.10644531 710.62158203 C201.39738492 757.00730465 130.64045693 786.66036347 58.97753906 796.39111328 C57.3873999 796.61541016 57.3873999 796.61541016 55.76513672 796.84423828 C-39.59334487 809.81780094 -138.22794421 785.2917999 -236.89746094 718.32861328 C-245.56733183 711.6738412 -253.91366324 704.71647493 -262.02246094 697.39111328 C-262.57305176 696.89691895 -263.12364258 696.40272461 -263.69091797 695.89355469 C-275.03766734 685.68316125 -286.20916213 675.10091478 -296.02246094 663.39111328 C-296.79203125 662.51068359 -297.56160156 661.63025391 -298.35449219 660.72314453 C-316.86307986 639.44746919 -332.32764978 615.99412123 -346.02246094 591.39111328 C-346.43560547 590.65666992 -346.84875 589.92222656 -347.27441406 589.16552734 C-391.1588931 510.68116191 -405.69633906 413.61272564 -380.20410156 290.47900391 C-372.98619289 265.16019437 -363.17940463 240.65876101 -351.02001953 217.3125 C-349.98304719 215.31519888 -348.96544781 213.30870045 -347.94824219 211.30126953 C-335.4842192 186.95366989 -319.6791753 164.24308657 -302.02246094 143.39111328 C-300.75656128 141.87142944 -300.75656128 141.87142944 -299.46508789 140.32104492 C-292.46075463 131.97030878 -285.06313728 124.11841547 -277.33129883 116.43920898 C-275.45057566 114.56928188 -273.58089275 112.6887869 -271.71191406 110.80712891 C-264.78691116 103.87410008 -257.73115091 97.4524412 -250.02246094 91.39111328 C-248.68142151 90.28371967 -247.3438415 89.17211517 -246.01074219 88.05517578 C-237.02966012 80.60350259 -227.78947801 73.77577814 -218.02246094 67.39111328 C-216.90266846 66.65828125 -216.90266846 66.65828125 -215.76025391 65.91064453 C-181.0062868 43.29840417 -143.79110272 26.13860579 -104.02246094 14.39111328 C-102.95705078 14.07279541 -102.95705078 14.07279541 -101.87011719 13.74804688 C-91.20578274 10.60989525 -80.36971094 8.36354153 -69.45996094 6.26611328 C-68.22608643 6.02441406 -66.99221191 5.78271484 -65.72094727 5.53369141 C-43.87199087 1.46410203 -22.21453593 -0.10661665 0 0 Z M-65.39501953 74.80322266 C-67.68931716 75.31657228 -69.98612748 75.7927429 -72.29199219 76.25048828 C-121.08453465 86.29139734 -168.1739712 111.45480046 -206.02246094 143.39111328 C-207.51712891 144.60734375 -207.51712891 144.60734375 -209.04199219 145.84814453 C-216.87849198 152.29817755 -224.14399525 159.29919672 -231.33496094 166.45361328 C-232.2538208 167.36328857 -233.17268066 168.27296387 -234.11938477 169.21020508 C-240.17962742 175.29780774 -245.67895164 181.67091774 -251.02246094 188.39111328 C-252.04693821 189.63436632 -253.07390721 190.87557471 -254.10449219 192.11376953 C-265.94236498 206.51644422 -275.93109784 222.13440398 -285.02246094 238.39111328 C-285.67746582 239.55537842 -285.67746582 239.55537842 -286.34570312 240.74316406 C-312.99950055 288.5530534 -326.49466369 343.09044501 -326.39746094 397.70361328 C-326.39791412 398.7029187 -326.39836731 399.70222412 -326.39883423 400.73181152 C-326.37739499 416.91924594 -325.30218088 432.48161707 -322.53076172 448.44091797 C-322.07619656 451.07922986 -321.67373472 453.71696365 -321.29980469 456.36767578 C-313.17993542 512.51181689 -286.47537334 567.18989312 -250.02246094 610.39111328 C-249.21164063 611.38755859 -248.40082031 612.38400391 -247.56542969 613.41064453 C-241.11539667 621.24714432 -234.1143775 628.51264759 -226.95996094 635.70361328 C-226.05028564 636.62247314 -225.14061035 637.54133301 -224.20336914 638.48803711 C-218.1170755 644.54697663 -211.75615387 650.06573995 -205.02246094 655.39111328 C-203.79570756 656.38045998 -202.56911649 657.37000801 -201.34277344 658.35986328 C-153.78249327 696.21381589 -96.42207576 720.81942292 -36.02246094 728.39111328 C-35.29623535 728.49262695 -34.57000977 728.59414063 -33.82177734 728.69873047 C1.89527953 733.61612766 38.83038432 730.5654235 73.97753906 723.39111328 C74.74678711 723.24061523 75.51603516 723.09011719 76.30859375 722.93505859 C112.9943981 715.7377137 149.46184387 700.38415999 180.97753906 680.39111328 C181.60772949 679.99214844 182.23791992 679.59318359 182.88720703 679.18212891 C209.66144491 662.08076431 235.58070155 640.84369261 255.97753906 616.39111328 C256.42967773 615.85276855 256.88181641 615.31442383 257.34765625 614.75976562 C299.80595687 564.04040906 325.6878052 503.80245181 334.97753906 438.39111328 C335.09613281 437.58528809 335.21472656 436.77946289 335.33691406 435.94921875 C338.84461028 411.23353185 337.87365471 385.11535983 334.97753906 360.39111328 C334.87570312 359.50746094 334.77386719 358.62380859 334.66894531 357.71337891 C326.68865534 290.86613515 297.39649645 227.39638583 252.08300781 177.71533203 C250.23776351 175.67837403 248.44672236 173.60840481 246.66503906 171.51611328 C243.58698561 167.98708921 240.34141101 164.64699464 237.04003906 161.32861328 C236.56203857 160.84602051 236.08403809 160.36342773 235.59155273 159.86621094 C231.55387003 155.84547904 227.30035769 152.10132204 222.97753906 148.39111328 C222.3479126 147.84946533 221.71828613 147.30781738 221.06958008 146.74975586 C204.23960948 132.38217724 186.38854038 120.0068003 166.97753906 109.39111328 C166.1188623 108.91464355 165.26018555 108.43817383 164.37548828 107.94726562 C135.20010393 91.83310885 104.62356752 80.51592008 71.94311523 73.98803711 C69.78425927 73.55349337 67.6285361 73.10329715 65.47485352 72.64379883 C22.84757385 63.70970573 -23.07570517 65.24002549 -65.39501953 74.80322266 Z " fill="#00654E" transform="translate(445.0224609375,40.60888671875)"/>
<path d="M0 0 C34.98 0 69.96 0 106 0 C106 63.69 106 127.38 106 193 C150.55 193 195.1 193 241 193 C241 129.31 241 65.62 241 0 C275.98 0 310.96 0 347 0 C347 155.43 347 310.86 347 471 C312.02 471 277.04 471 241 471 C241 407.97 241 344.94 241 280 C196.45 280 151.9 280 106 280 C106 343.03 106 406.06 106 471 C71.02 471 36.04 471 0 471 C0 315.57 0 160.14 0 0 Z " fill="#00654D" transform="translate(277,204)"/>
</svg>
